<mxfile host="65bd71144e" scale="1" border="10">
    <diagram name="reverse_iterator" id="aD5TzfyaZY4EZAfey6hq">
        <mxGraphModel dx="1632" dy="886" grid="1" gridSize="10" guides="1" tooltips="1" connect="1" arrows="1" fold="1" page="1" pageScale="1" pageWidth="827" pageHeight="1169" background="#FFFFFF" math="0" shadow="0">
            <root>
                <mxCell id="jOe665KYVfkVdxWGCD2f-0"/>
                <mxCell id="jOe665KYVfkVdxWGCD2f-1" parent="jOe665KYVfkVdxWGCD2f-0"/>
                <mxCell id="jOe665KYVfkVdxWGCD2f-2" value="std::vector::reverse_iterator" style="text;strokeColor=#666666;fillColor=#f5f5f5;html=1;fontSize=24;fontStyle=1;verticalAlign=middle;align=center;shadow=0;labelBorderColor=none;fontColor=#333333;" parent="jOe665KYVfkVdxWGCD2f-1" vertex="1">
                    <mxGeometry x="182.5" y="230" width="335" height="40" as="geometry"/>
                </mxCell>
                <mxCell id="jOe665KYVfkVdxWGCD2f-3" value="value0" style="rounded=0;whiteSpace=wrap;html=1;shadow=0;labelBorderColor=none;strokeColor=#666666;fillColor=#f5f5f5;fontColor=#333333;" parent="jOe665KYVfkVdxWGCD2f-1" vertex="1">
                    <mxGeometry x="150" y="320" width="80" height="40" as="geometry"/>
                </mxCell>
                <mxCell id="jOe665KYVfkVdxWGCD2f-4" value="value1" style="rounded=0;whiteSpace=wrap;html=1;shadow=0;labelBorderColor=none;strokeColor=#666666;fillColor=#f5f5f5;fontColor=#333333;" parent="jOe665KYVfkVdxWGCD2f-1" vertex="1">
                    <mxGeometry x="230" y="320" width="80" height="40" as="geometry"/>
                </mxCell>
                <mxCell id="jOe665KYVfkVdxWGCD2f-5" value="" style="rounded=0;whiteSpace=wrap;html=1;shadow=0;labelBorderColor=none;strokeColor=#666666;fillColor=#f5f5f5;fontColor=#333333;" parent="jOe665KYVfkVdxWGCD2f-1" vertex="1">
                    <mxGeometry x="310" y="320" width="80" height="40" as="geometry"/>
                </mxCell>
                <mxCell id="jOe665KYVfkVdxWGCD2f-6" value="" style="rounded=0;whiteSpace=wrap;html=1;shadow=0;labelBorderColor=none;strokeColor=#666666;fillColor=#f5f5f5;fontColor=#333333;" parent="jOe665KYVfkVdxWGCD2f-1" vertex="1">
                    <mxGeometry x="470" y="320" width="80" height="40" as="geometry"/>
                </mxCell>
                <mxCell id="jOe665KYVfkVdxWGCD2f-7" value="" style="rounded=0;whiteSpace=wrap;html=1;shadow=0;labelBorderColor=none;strokeColor=#666666;fillColor=#f5f5f5;fontColor=#333333;" parent="jOe665KYVfkVdxWGCD2f-1" vertex="1">
                    <mxGeometry x="390" y="320" width="80" height="40" as="geometry"/>
                </mxCell>
                <mxCell id="jOe665KYVfkVdxWGCD2f-8" value="" style="edgeStyle=none;html=1;fillColor=#f5f5f5;strokeColor=#666666;" parent="jOe665KYVfkVdxWGCD2f-1" source="jOe665KYVfkVdxWGCD2f-9" target="jOe665KYVfkVdxWGCD2f-3" edge="1">
                    <mxGeometry relative="1" as="geometry"/>
                </mxCell>
                <mxCell id="jOe665KYVfkVdxWGCD2f-9" value="rend()" style="rounded=0;whiteSpace=wrap;html=1;shadow=0;labelBorderColor=none;strokeColor=#666666;fillColor=#f5f5f5;fontColor=#333333;" parent="jOe665KYVfkVdxWGCD2f-1" vertex="1">
                    <mxGeometry x="150" y="400" width="80" height="40" as="geometry"/>
                </mxCell>
                <mxCell id="jOe665KYVfkVdxWGCD2f-10" value="" style="edgeStyle=none;html=1;fillColor=#f5f5f5;strokeColor=#666666;" parent="jOe665KYVfkVdxWGCD2f-1" source="jOe665KYVfkVdxWGCD2f-11" edge="1">
                    <mxGeometry relative="1" as="geometry">
                        <mxPoint x="350" y="360" as="targetPoint"/>
                    </mxGeometry>
                </mxCell>
                <mxCell id="jOe665KYVfkVdxWGCD2f-11" value="rbegin()" style="rounded=0;whiteSpace=wrap;html=1;shadow=0;labelBorderColor=none;strokeColor=#666666;fillColor=#f5f5f5;fontColor=#333333;" parent="jOe665KYVfkVdxWGCD2f-1" vertex="1">
                    <mxGeometry x="310" y="400" width="80" height="40" as="geometry"/>
                </mxCell>
                <mxCell id="jOe665KYVfkVdxWGCD2f-12" value="" style="rounded=0;whiteSpace=wrap;html=1;shadow=0;labelBorderColor=none;strokeColor=#666666;fillColor=#f5f5f5;fontColor=#333333;" parent="jOe665KYVfkVdxWGCD2f-1" vertex="1">
                    <mxGeometry x="150" y="490" width="80" height="40" as="geometry"/>
                </mxCell>
                <mxCell id="jOe665KYVfkVdxWGCD2f-13" value="" style="rounded=0;whiteSpace=wrap;html=1;shadow=0;labelBorderColor=none;strokeColor=#666666;fillColor=#f5f5f5;fontColor=#333333;" parent="jOe665KYVfkVdxWGCD2f-1" vertex="1">
                    <mxGeometry x="230" y="490" width="80" height="40" as="geometry"/>
                </mxCell>
                <mxCell id="jOe665KYVfkVdxWGCD2f-14" value="" style="rounded=0;whiteSpace=wrap;html=1;shadow=0;labelBorderColor=none;strokeColor=#666666;fillColor=#f5f5f5;fontColor=#333333;" parent="jOe665KYVfkVdxWGCD2f-1" vertex="1">
                    <mxGeometry x="310" y="490" width="80" height="40" as="geometry"/>
                </mxCell>
                <mxCell id="jOe665KYVfkVdxWGCD2f-15" value="" style="rounded=0;whiteSpace=wrap;html=1;shadow=0;labelBorderColor=none;strokeColor=#666666;fillColor=#f5f5f5;fontColor=#333333;" parent="jOe665KYVfkVdxWGCD2f-1" vertex="1">
                    <mxGeometry x="470" y="490" width="80" height="40" as="geometry"/>
                </mxCell>
                <mxCell id="jOe665KYVfkVdxWGCD2f-16" value="" style="rounded=0;whiteSpace=wrap;html=1;shadow=0;labelBorderColor=none;strokeColor=#666666;fillColor=#f5f5f5;fontColor=#333333;" parent="jOe665KYVfkVdxWGCD2f-1" vertex="1">
                    <mxGeometry x="390" y="490" width="80" height="40" as="geometry"/>
                </mxCell>
                <mxCell id="jOe665KYVfkVdxWGCD2f-17" value="" style="edgeStyle=none;html=1;fillColor=#f5f5f5;strokeColor=#666666;" parent="jOe665KYVfkVdxWGCD2f-1" source="jOe665KYVfkVdxWGCD2f-18" target="jOe665KYVfkVdxWGCD2f-12" edge="1">
                    <mxGeometry relative="1" as="geometry"/>
                </mxCell>
                <mxCell id="jOe665KYVfkVdxWGCD2f-18" value="rend()" style="rounded=0;whiteSpace=wrap;html=1;shadow=0;labelBorderColor=none;strokeColor=#666666;fillColor=#f5f5f5;fontColor=#333333;" parent="jOe665KYVfkVdxWGCD2f-1" vertex="1">
                    <mxGeometry x="150" y="570" width="40" height="40" as="geometry"/>
                </mxCell>
                <mxCell id="jOe665KYVfkVdxWGCD2f-19" value="" style="edgeStyle=none;html=1;entryX=0.5;entryY=1;entryDx=0;entryDy=0;fillColor=#f5f5f5;strokeColor=#666666;" parent="jOe665KYVfkVdxWGCD2f-1" source="jOe665KYVfkVdxWGCD2f-20" target="jOe665KYVfkVdxWGCD2f-12" edge="1">
                    <mxGeometry relative="1" as="geometry"/>
                </mxCell>
                <mxCell id="jOe665KYVfkVdxWGCD2f-20" value="rbegin()" style="rounded=0;whiteSpace=wrap;html=1;shadow=0;labelBorderColor=none;strokeColor=#666666;fillColor=#f5f5f5;fontColor=#333333;" parent="jOe665KYVfkVdxWGCD2f-1" vertex="1">
                    <mxGeometry x="195" y="570" width="45" height="40" as="geometry"/>
                </mxCell>
                <mxCell id="0" value="?????" style="text;html=1;align=center;verticalAlign=middle;resizable=0;points=[];autosize=1;strokeColor=#666666;fillColor=#f5f5f5;fontColor=#333333;fontSize=18;" parent="jOe665KYVfkVdxWGCD2f-1" vertex="1">
                    <mxGeometry x="295" y="280" width="110" height="30" as="geometry"/>
                </mxCell>
                <mxCell id="1" value="????" style="text;html=1;align=center;verticalAlign=middle;resizable=0;points=[];autosize=1;strokeColor=#666666;fillColor=#f5f5f5;fontColor=#333333;fontSize=18;" parent="jOe665KYVfkVdxWGCD2f-1" vertex="1">
                    <mxGeometry x="305" y="450" width="90" height="30" as="geometry"/>
                </mxCell>
            </root>
        </mxGraphModel>
    </diagram>
</mxfile>